<?xml version="1.0" encoding="utf-8"?>
<!-- Generator: Adobe Illustrator 16.0.0, SVG Export Plug-In . SVG Version: 6.00 Build 0)  -->
<!DOCTYPE svg PUBLIC "-//W3C//DTD SVG 1.1//EN" "http://www.w3.org/Graphics/SVG/1.1/DTD/svg11.dtd">
<svg version="1.1" id="Layer_1" xmlns="http://www.w3.org/2000/svg" xmlns:xlink="http://www.w3.org/1999/xlink" x="0px" y="0px"
	 width="1420px" height="1028px" viewBox="0 0 1420 1028" enable-background="new 0 0 1420 1028" xml:space="preserve">
<rect x="2.999" y="-1" fill="#FBFBFD" width="1420" height="1028"/>
<g>
	<g opacity="0.2">
		<path fill="#FCE4D5" d="M461.958,42.742c0,0-56.627-27.799-85.438-35.742L7.701,7.048
			c38.622,41.884,139.108,127.38,139.108,127.38c170.98,216.433,245.196,110.47,248.587,92.634
			C408.311,159.125,601.042,106.957,461.958,42.742z"/>
	</g>
	<g>
		<path fill="#FCE4D5" d="M141.07,159.125c-44.283-34.09-111.497-19.827-133.507-23.5l-3.59,156.043
			c19.855-4.116,22.638-56.93,117.371-39.365c97.401,18.059,172.751,34.247,210.674-43.983
			C315.699,95.437,185.354,193.216,141.07,159.125z"/>
	</g>
	<g id="Layer_6">
		<ellipse fill="#9FC8BC" cx="843.75" cy="517.132" rx="12.854" ry="12.633"/>
		<ellipse fill="#E85E0C" cx="311.76" cy="366.101" rx="11.828" ry="11.244"/>
		<ellipse fill="#CA9E67" cx="522.706" cy="235.336" rx="7.833" ry="8.761"/>
		<ellipse fill="#E7F1F5" cx="89.416" cy="963.1" rx="8.286" ry="10.501"/>
		<ellipse fill="#CA9E67" cx="1286.146" cy="507.903" rx="15.923" ry="17.187"/>
	</g>
	<g>
		<path opacity="0.4" fill="#FFFFFF" enable-background="new    " d="M163.768,100.55l93.38,145.792
			c1.296-0.251,2.587-0.521,3.865-0.823L166.05,97.263C165.265,98.341,164.504,99.438,163.768,100.55z"/>
		<path opacity="0.4" fill="#FFFFFF" enable-background="new    " d="M207.509,65.176c-1.497,0.58-2.975,1.198-4.436,1.854
			l99.021,154.592l-2.714,2.217L199.899,68.528c-1.532,0.76-3.041,1.568-4.522,2.413l100.879,157.495
			c4.059-3.194,7.845-6.726,11.332-10.556l-1.491,1.218L207.509,65.176z"/>
		<path opacity="0.4" fill="#FFFFFF" enable-background="new    " d="M287.443,72.475c-2.779-1.705-5.65-3.263-8.608-4.666
			l53.467,83.472c-0.075-3.351-0.324-6.66-0.731-9.915L287.443,72.475z"/>
		<path opacity="0.4" fill="#FFFFFF" enable-background="new    " d="M255.354,60.389l74.262,115.94
			c0.413-1.696,0.776-3.411,1.097-5.143L260.386,61.392C258.726,61.01,257.047,60.676,255.354,60.389z"/>
		<path opacity="0.4" fill="#FFFFFF" enable-background="new    " d="M210.859,63.951l97.818,152.717
			c1.015-1.155,1.999-2.333,2.957-3.537L215.208,62.583C213.742,63.005,212.292,63.46,210.859,63.951z"/>
		<path opacity="0.4" fill="#FFFFFF" enable-background="new    " d="M159.329,107.959l89.406,139.584
			c1.573-0.15,3.13-0.341,4.681-0.569L161.71,103.798C160.883,105.164,160.089,106.55,159.329,107.959z"/>
		<path opacity="0.4" fill="#FFFFFF" enable-background="new    " d="M149.457,136.148l70.106,109.455
			c2.102,0.485,4.229,0.904,6.381,1.243l-75.072-117.203C150.329,131.783,149.859,133.953,149.457,136.148z"/>
		<path opacity="0.4" fill="#FFFFFF" enable-background="new    " d="M149.388,170.519l1.292-1.056l40.646,63.456l-0.514,0.416
			c3.242,2.108,6.623,4.008,10.124,5.693l-52.999-82.743C148.072,161.131,148.565,165.883,149.388,170.519z"/>
		<path opacity="0.4" fill="#FFFFFF" enable-background="new    " d="M180.205,81.742l100.35,156.668
			c0.701-0.354,1.398-0.715,2.091-1.083L182.004,80.206C181.4,80.711,180.796,81.222,180.205,81.742z"/>
		<path opacity="0.4" fill="#FFFFFF" enable-background="new    " d="M183.707,78.822l100.854,157.455
			c0.993-0.561,1.973-1.139,2.945-1.733L186.431,76.742C185.51,77.417,184.602,78.113,183.707,78.822z"/>
		<path opacity="0.4" fill="#FFFFFF" enable-background="new    " d="M189.28,74.733l101.158,157.928
			c1.025-0.685,2.039-1.387,3.036-2.111L192.377,72.717C191.332,73.368,190.3,74.043,189.28,74.733z"/>
		<path opacity="0.4" fill="#FFFFFF" enable-background="new    " d="M174.16,87.537l98.796,154.246
			c1.496-0.584,2.97-1.205,4.426-1.865l-99.79-155.799C176.418,85.228,175.275,86.368,174.16,87.537z"/>
		<path opacity="0.4" fill="#FFFFFF" enable-background="new    " d="M168.29,94.305l96.263,150.291c1.707-0.478,3.396-1,5.06-1.574
			L171.72,90.186C170.54,91.523,169.397,92.898,168.29,94.305z"/>
		<path opacity="0.4" fill="#FFFFFF" enable-background="new    " d="M147.969,149.881l58.721,91.68
			c2.58,1.028,5.211,1.938,7.897,2.729l-65.93-102.938C148.302,144.158,148.076,147.003,147.969,149.881z"/>
		<path opacity="0.4" fill="#FFFFFF" enable-background="new    " d="M294.789,77.486l35.245,55.023
			C325.056,110.085,312.285,90.697,294.789,77.486z"/>
		<path opacity="0.4" fill="#FFFFFF" enable-background="new    " d="M240.11,59.098c-1.41,0-2.812,0.038-4.207,0.102l87.034,135.88
			c0.815-1.7,1.584-3.43,2.298-5.186L241.471,59.116C241.017,59.108,240.565,59.098,240.11,59.098z"/>
		<path opacity="0.4" fill="#FFFFFF" enable-background="new    " d="M184.666,228.984l-34.253-53.479
			C155.46,197.195,167.815,215.981,184.666,228.984z"/>
		<path opacity="0.4" fill="#FFFFFF" enable-background="new    " d="M226.309,60.15l91.939,143.54
			c1.004-1.632,1.962-3.298,2.867-4.998l-89.174-139.22C230.047,59.64,228.168,59.866,226.309,60.15z"/>
		<path opacity="0.4" fill="#FFFFFF" enable-background="new    " d="M245.709,59.275l81.073,126.575
			c0.585-1.635,1.118-3.293,1.61-4.969L250.797,59.732C249.114,59.534,247.418,59.381,245.709,59.275z"/>
		<path opacity="0.4" fill="#FFFFFF" enable-background="new    " d="M152.134,125.155l78.329,122.287
			c1.848,0.199,3.712,0.333,5.589,0.417L153.984,119.73C153.317,121.513,152.697,123.321,152.134,125.155z"/>
		<path opacity="0.4" fill="#FFFFFF" enable-background="new    " d="M218.745,61.651l95.143,148.538
			c0.787-1.072,1.55-2.165,2.294-3.275L222.594,60.807C221.3,61.061,220.019,61.342,218.745,61.651z"/>
		<path opacity="0.4" fill="#FFFFFF" enable-background="new    " d="M265.344,62.676l66.183,103.326
			c0.354-2.753,0.592-5.542,0.71-8.364L273.113,65.33C270.574,64.335,267.984,63.444,265.344,62.676z"/>
		<path opacity="0.4" fill="#FFFFFF" enable-background="new    " d="M155.574,115.759l84.675,132.194
			c1.521-0.001,3.035-0.042,4.536-0.12l-87.292-136.285C156.821,112.932,156.182,114.335,155.574,115.759z"/>
	</g>
	<g>
		<polygon fill="none" points="87.532,194.688 7.563,56.453 7.563,62.719 85.151,196.841 		"/>
		<path opacity="0.4" fill="#FFFFFF" enable-background="new    " d="M48.135,218.677c1.139-0.242,2.268-0.505,3.385-0.798
			L7.563,141.892v6.65L48.135,218.677z"/>
		<path opacity="0.4" fill="#FFFFFF" enable-background="new    " d="M87.532,194.688l-2.381,2.153L7.563,62.719v9.191
			l74.85,129.388c3.556-3.1,6.878-6.526,9.934-10.244l-1.306,1.179L7.563,47.936v8.517L87.532,194.688z"/>
		<path opacity="0.4" fill="#FFFFFF" enable-background="new    " d="M113.365,116.799L74.691,49.942
			c-2.434-1.655-4.954-3.167-7.547-4.528l46.863,81.008C113.94,123.17,113.725,119.96,113.365,116.799z"/>
		<path opacity="0.4" fill="#FFFFFF" enable-background="new    " d="M46.563,38.212l65.09,112.518
			c0.362-1.646,0.682-3.31,0.962-4.99L50.976,39.188C49.519,38.816,48.049,38.494,46.563,38.212z"/>
		<path opacity="0.4" fill="#FFFFFF" enable-background="new    " d="M7.563,41.67L93.3,189.879c0.89-1.119,1.753-2.265,2.591-3.433
			L11.376,40.345C10.091,40.753,8.821,41.195,7.563,41.67z"/>
		<path opacity="0.4" fill="#FFFFFF" enable-background="new    " d="M40.761,219.841c1.379-0.145,2.747-0.33,4.104-0.552
			l-37.302-64.48v7.646L40.761,219.841z"/>
		<path opacity="0.4" fill="#FFFFFF" enable-background="new    " d="M15.195,217.959c1.841,0.473,3.704,0.879,5.593,1.208
			L7.563,196.309v8.459L15.195,217.959z"/>
		<path opacity="0.4" fill="#FFFFFF" enable-background="new    " d="M68.651,210.98c0.615-0.343,1.226-0.693,1.833-1.051
			L7.563,101.165v4.218L68.651,210.98z"/>
		<path opacity="0.4" fill="#FFFFFF" enable-background="new    " d="M72.162,208.909c0.871-0.544,1.729-1.105,2.58-1.683
			L7.563,91.096v6.147L72.162,208.909z"/>
		<path opacity="0.4" fill="#FFFFFF" enable-background="new    " d="M77.313,205.401c0.898-0.665,1.788-1.346,2.663-2.049
			L7.563,78.178v6.652L77.313,205.401z"/>
		<path opacity="0.4" fill="#FFFFFF" enable-background="new    " d="M61.991,214.252c1.311-0.564,2.602-1.167,3.879-1.81
			L7.563,111.649v8.516L61.991,214.252z"/>
		<path opacity="0.4" fill="#FFFFFF" enable-background="new    " d="M54.628,216.983c1.495-0.465,2.973-0.97,4.433-1.53
			L7.563,126.432v9.192L54.628,216.983z"/>
		<path opacity="0.4" fill="#FFFFFF" enable-background="new    " d="M10.833,216.686l-3.271-5.652v4.497
			C8.644,215.94,9.733,216.326,10.833,216.686z"/>
		<path opacity="0.4" fill="#FFFFFF" enable-background="new    " d="M81.129,54.805l30.889,53.401
			C107.657,86.443,96.462,67.627,81.129,54.805z"/>
		<path opacity="0.4" fill="#FFFFFF" enable-background="new    " d="M33.205,36.96c-1.237,0-2.465,0.037-3.689,0.1L105.8,168.928
			c0.714-1.65,1.387-3.328,2.017-5.032L34.395,36.977C33.999,36.971,33.602,36.96,33.205,36.96z"/>
		<path opacity="0.4" fill="#FFFFFF" enable-background="new    " d="M21.105,37.982l80.585,139.302
			c0.88-1.585,1.719-3.201,2.511-4.851L26.044,37.323C24.383,37.488,22.736,37.704,21.105,37.982z"/>
		<path opacity="0.4" fill="#FFFFFF" enable-background="new    " d="M38.108,37.134l71.063,122.839
			c0.509-1.588,0.978-3.197,1.412-4.823L42.569,37.576C41.094,37.384,39.607,37.235,38.108,37.134z"/>
		<path opacity="0.4" fill="#FFFFFF" enable-background="new    " d="M24.747,219.745c1.618,0.192,3.253,0.323,4.899,0.405
			L7.563,181.979v8.064L24.747,219.745z"/>
		<path opacity="0.4" fill="#FFFFFF" enable-background="new    " d="M14.474,39.438l83.391,144.153
			c0.691-1.041,1.359-2.101,2.011-3.177L17.85,38.62C16.717,38.866,15.592,39.139,14.474,39.438z"/>
		<path opacity="0.4" fill="#FFFFFF" enable-background="new    " d="M55.322,40.433l58.007,100.276
			c0.312-2.67,0.519-5.379,0.622-8.116L62.128,43.01C59.904,42.042,57.634,41.177,55.322,40.433z"/>
		<path opacity="0.4" fill="#FFFFFF" enable-background="new    " d="M33.324,220.241c1.333-0.002,2.661-0.042,3.977-0.115
			L7.563,168.722v6.991L33.324,220.241z"/>
	</g>
	<g id="Layer_2_1_">
		<g>
			<path fill="#FCE4D5" d="M1221.461,246.084c128.012,79.392,158.503-38.516,189.249-35.084l-8.624-162.457
				c-27.689,4.247-72.398,91.074-204.743,74.578c-136.072-16.961-235.397-7.168-230.729,80.749
				C1014.553,374.834,1123.867,185.559,1221.461,246.084z"/>
		</g>
	</g>
	<ellipse fill="#FCE4D5" cx="713.799" cy="527.246" rx="8.444" ry="9.928"/>
	<ellipse fill="#FCE4D5" cx="292.921" cy="692.057" rx="5.87" ry="5.958"/>
	<ellipse fill="#9FC8BC" cx="277.138" cy="825.554" rx="16.101" ry="18.213"/>
	<ellipse fill="#FCE4D5" cx="477.885" cy="343.947" rx="7.916" ry="8.936"/>
	<ellipse fill="#FCE4D5" cx="583.159" cy="798.586" rx="5.961" ry="7.244"/>
	<path fill="#FCE4D5" d="M719.918,890.857c0,65.799-84.337,71.36-123.588,71.36c-39.252,0-146.632-1.589-146.632-67.389
		s107.38-170.893,146.632-170.893C635.581,723.937,719.918,825.058,719.918,890.857z"/>
	<g>
		<path fill="#E7F1F5" d="M0,391.727v459.198l0,0c0,0,264.462-26.604,264.462-133.093C264.462,632.384,91.076,457.499,0,391.727z"/>
	</g>
	<g>
		<path fill="#E7F1F5" d="M983.361,445.471v459.197l0,0c0,0,264.462-26.604,264.462-133.091
			C1247.823,686.13,1074.438,511.243,983.361,445.471z"/>
	</g>
	<g>
		<path opacity="0.5" fill="#FCE4D5" enable-background="new    " d="M1316.582,462.635c-66.62,57.601-26.222,90.794,9.298,178.686
			c29.135,72.09,45.944,158.563,87.809,155.549V553.09C1388.643,478.698,1373.004,413.85,1316.582,462.635z"/>
	</g>
	<g>
		<path opacity="0.4" fill="#FFFFFF" enable-background="new    " d="M1033.649,61.364l93.382,145.791
			c1.296-0.25,2.587-0.52,3.864-0.821l-94.963-148.257C1035.148,59.154,1034.387,60.25,1033.649,61.364z"/>
		<path opacity="0.4" fill="#FFFFFF" enable-background="new    " d="M1077.392,25.99c-1.496,0.581-2.975,1.198-4.436,1.854
			l99.022,154.593l-2.716,2.218l-99.481-155.312c-1.531,0.76-3.041,1.569-4.52,2.412l100.877,157.495
			c4.06-3.193,7.847-6.726,11.332-10.557l-1.491,1.218L1077.392,25.99z"/>
		<path opacity="0.4" fill="#FFFFFF" enable-background="new    " d="M1157.326,33.288c-2.779-1.705-5.65-3.262-8.606-4.665
			l53.466,83.471c-0.076-3.35-0.324-6.659-0.732-9.915L1157.326,33.288z"/>
		<path opacity="0.4" fill="#FFFFFF" enable-background="new    " d="M1125.236,21.203l74.264,115.94
			c0.411-1.696,0.775-3.411,1.096-5.143L1130.27,22.205C1128.609,21.823,1126.931,21.49,1125.236,21.203z"/>
		<path opacity="0.4" fill="#FFFFFF" enable-background="new    " d="M1080.743,24.765l97.818,152.716
			c1.015-1.154,1.998-2.333,2.957-3.536l-96.428-150.547C1083.624,23.818,1082.176,24.274,1080.743,24.765z"/>
		<path opacity="0.4" fill="#FFFFFF" enable-background="new    " d="M1029.213,68.772l89.406,139.583
			c1.572-0.149,3.13-0.339,4.681-0.568l-91.706-143.175C1030.767,65.978,1029.973,67.363,1029.213,68.772z"/>
		<path opacity="0.4" fill="#FFFFFF" enable-background="new    " d="M1019.34,96.961l70.107,109.455
			c2.102,0.485,4.228,0.904,6.381,1.243l-75.071-117.204C1020.212,92.596,1019.742,94.767,1019.34,96.961z"/>
		<path opacity="0.4" fill="#FFFFFF" enable-background="new    " d="M1019.271,131.332l1.292-1.056l40.645,63.455l-0.514,0.416
			c3.242,2.108,6.624,4.009,10.124,5.694l-52.999-82.743C1017.955,121.944,1018.448,126.697,1019.271,131.332z"/>
		<path opacity="0.4" fill="#FFFFFF" enable-background="new    " d="M1050.088,42.555l100.349,156.668
			c0.701-0.353,1.399-0.715,2.091-1.083l-100.64-157.121C1051.283,41.524,1050.681,42.036,1050.088,42.555z"/>
		<path opacity="0.4" fill="#FFFFFF" enable-background="new    " d="M1053.589,39.636l100.854,157.455
			c0.994-0.561,1.973-1.139,2.945-1.733L1056.314,37.556C1055.392,38.231,1054.484,38.926,1053.589,39.636z"/>
		<path opacity="0.4" fill="#FFFFFF" enable-background="new    " d="M1059.163,35.547l101.157,157.929
			c1.025-0.686,2.04-1.388,3.036-2.112L1062.26,33.53C1061.215,34.181,1060.183,34.857,1059.163,35.547z"/>
		<path opacity="0.4" fill="#FFFFFF" enable-background="new    " d="M1044.043,48.35l98.797,154.247
			c1.494-0.583,2.968-1.204,4.426-1.865l-99.79-155.799C1046.302,46.042,1045.159,47.181,1044.043,48.35z"/>
		<path opacity="0.4" fill="#FFFFFF" enable-background="new    " d="M1038.172,55.118l96.264,150.29
			c1.708-0.477,3.396-0.999,5.061-1.572L1041.604,51C1040.422,52.337,1039.28,53.712,1038.172,55.118z"/>
		<path opacity="0.4" fill="#FFFFFF" enable-background="new    " d="M1017.852,110.694l58.721,91.68
			c2.58,1.028,5.213,1.938,7.897,2.729l-65.93-102.937C1018.185,104.971,1017.959,107.817,1017.852,110.694z"/>
		<path opacity="0.4" fill="#FFFFFF" enable-background="new    " d="M1164.672,38.299l35.245,55.023
			C1194.94,70.899,1182.169,51.51,1164.672,38.299z"/>
		<path opacity="0.4" fill="#FFFFFF" enable-background="new    " d="M1109.992,19.911c-1.409,0-2.811,0.039-4.206,0.103
			l87.035,135.879c0.814-1.699,1.582-3.43,2.297-5.185l-83.765-130.778C1110.899,19.921,1110.448,19.911,1109.992,19.911z"/>
		<path opacity="0.4" fill="#FFFFFF" enable-background="new    " d="M1054.55,189.798l-34.254-53.479
			C1025.343,158.007,1037.697,176.795,1054.55,189.798z"/>
		<path opacity="0.4" fill="#FFFFFF" enable-background="new    " d="M1096.191,20.964l91.939,143.54
			c1.005-1.633,1.964-3.299,2.868-4.999l-89.174-139.22C1099.931,20.454,1098.051,20.679,1096.191,20.964z"/>
		<path opacity="0.4" fill="#FFFFFF" enable-background="new    " d="M1115.594,20.089l81.07,126.575
			c0.587-1.635,1.118-3.292,1.611-4.969l-77.595-121.148C1118.996,20.347,1117.301,20.194,1115.594,20.089z"/>
		<path opacity="0.4" fill="#FFFFFF" enable-background="new    " d="M1022.016,85.968l78.33,122.288
			c1.848,0.199,3.713,0.333,5.59,0.418l-82.068-128.129C1023.199,82.328,1022.581,84.134,1022.016,85.968z"/>
		<path opacity="0.4" fill="#FFFFFF" enable-background="new    " d="M1088.629,22.464l95.142,148.538
			c0.786-1.072,1.551-2.164,2.294-3.275L1092.477,21.62C1091.184,21.875,1089.9,22.155,1088.629,22.464z"/>
		<path opacity="0.4" fill="#FFFFFF" enable-background="new    " d="M1135.228,23.489l66.183,103.326
			c0.354-2.753,0.592-5.542,0.711-8.364l-59.125-92.308C1140.457,25.148,1137.866,24.257,1135.228,23.489z"/>
		<path opacity="0.4" fill="#FFFFFF" enable-background="new    " d="M1025.457,76.572l84.674,132.195
			c1.522,0,3.035-0.042,4.536-0.12l-87.291-136.285C1026.704,73.745,1026.065,75.149,1025.457,76.572z"/>
	</g>
	<g>
		<path opacity="0.4" fill="#FFFFFF" enable-background="new    " d="M1247.829,194.979l93.381,145.791
			c1.295-0.25,2.586-0.52,3.863-0.822l-94.962-148.256C1249.326,192.769,1248.564,193.865,1247.829,194.979z"/>
		<path opacity="0.4" fill="#FFFFFF" enable-background="new    " d="M1291.57,159.605c-1.498,0.579-2.974,1.198-4.436,1.853
			l99.021,154.593l-2.715,2.217l-99.48-155.312c-1.533,0.76-3.041,1.568-4.523,2.412l100.88,157.495
			c4.06-3.193,7.846-6.725,11.331-10.556l-1.49,1.217L1291.57,159.605z"/>
		<path opacity="0.4" fill="#FFFFFF" enable-background="new    " d="M1371.505,166.903c-2.779-1.705-5.65-3.262-8.607-4.666
			l53.466,83.472c-0.075-3.351-0.324-6.66-0.731-9.915L1371.505,166.903z"/>
		<path opacity="0.4" fill="#FFFFFF" enable-background="new    " d="M1339.415,154.817l74.263,115.941
			c0.411-1.696,0.776-3.412,1.098-5.143l-70.327-109.795C1342.787,155.438,1341.109,155.105,1339.415,154.817z"/>
		<path opacity="0.4" fill="#FFFFFF" enable-background="new    " d="M1294.92,158.379l97.819,152.716
			c1.015-1.154,1.999-2.333,2.958-3.536l-96.43-150.547C1297.803,157.433,1296.354,157.889,1294.92,158.379z"/>
		<path opacity="0.4" fill="#FFFFFF" enable-background="new    " d="M1243.39,202.387l89.407,139.583
			c1.574-0.149,3.13-0.339,4.682-0.568l-91.707-143.175C1244.944,199.592,1244.151,200.978,1243.39,202.387z"/>
		<path opacity="0.4" fill="#FFFFFF" enable-background="new    " d="M1233.518,230.577l70.106,109.455
			c2.101,0.484,4.229,0.903,6.383,1.243l-75.073-117.204C1234.391,226.211,1233.92,228.381,1233.518,230.577z"/>
		<path opacity="0.4" fill="#FFFFFF" enable-background="new    " d="M1233.449,264.947l1.291-1.056l40.646,63.455l-0.515,0.417
			c3.242,2.107,6.623,4.008,10.122,5.693l-52.998-82.743C1232.135,255.559,1232.627,260.312,1233.449,264.947z"/>
		<path opacity="0.4" fill="#FFFFFF" enable-background="new    " d="M1264.267,176.17l100.349,156.668
			c0.701-0.353,1.398-0.715,2.091-1.083l-100.642-157.121C1265.462,175.139,1264.858,175.65,1264.267,176.17z"/>
		<path opacity="0.4" fill="#FFFFFF" enable-background="new    " d="M1267.77,173.251l100.853,157.455
			c0.993-0.562,1.972-1.14,2.944-1.734L1270.493,171.17C1269.571,171.846,1268.663,172.542,1267.77,173.251z"/>
		<path opacity="0.4" fill="#FFFFFF" enable-background="new    " d="M1273.342,169.162L1374.5,327.09
			c1.024-0.686,2.039-1.388,3.035-2.112l-101.096-157.833C1275.393,167.795,1274.361,168.471,1273.342,169.162z"/>
		<path opacity="0.4" fill="#FFFFFF" enable-background="new    " d="M1258.221,181.964l98.797,154.247
			c1.494-0.583,2.97-1.205,4.426-1.866l-99.79-155.799C1260.479,179.656,1259.337,180.795,1258.221,181.964z"/>
		<path opacity="0.4" fill="#FFFFFF" enable-background="new    " d="M1252.35,188.732l96.265,150.29
			c1.707-0.477,3.396-0.999,5.06-1.572l-97.893-152.836C1254.602,185.951,1253.459,187.327,1252.35,188.732z"/>
		<path opacity="0.4" fill="#FFFFFF" enable-background="new    " d="M1232.03,244.31l58.722,91.679
			c2.578,1.028,5.209,1.938,7.897,2.729l-65.932-102.937C1232.362,238.585,1232.139,241.432,1232.03,244.31z"/>
		<path opacity="0.4" fill="#FFFFFF" enable-background="new    " d="M1378.851,171.914l35.244,55.024
			C1409.118,204.513,1396.347,185.125,1378.851,171.914z"/>
		<path opacity="0.4" fill="#FFFFFF" enable-background="new    " d="M1324.172,153.525c-1.411,0-2.813,0.039-4.208,0.103
			l87.035,135.879c0.815-1.699,1.583-3.43,2.297-5.186l-83.763-130.778C1325.077,153.536,1324.627,153.525,1324.172,153.525z"/>
		<path opacity="0.4" fill="#FFFFFF" enable-background="new    " d="M1268.728,323.413l-34.254-53.479
			C1239.521,291.623,1251.877,310.41,1268.728,323.413z"/>
		<path opacity="0.4" fill="#FFFFFF" enable-background="new    " d="M1310.371,154.579l91.938,143.54
			c1.005-1.633,1.964-3.298,2.867-4.999L1316.002,153.9C1314.109,154.068,1312.23,154.294,1310.371,154.579z"/>
		<path opacity="0.4" fill="#FFFFFF" enable-background="new    " d="M1329.771,153.704l81.071,126.575
			c0.586-1.635,1.118-3.292,1.611-4.969l-77.596-121.149C1333.176,153.962,1331.479,153.809,1329.771,153.704z"/>
		<path opacity="0.4" fill="#FFFFFF" enable-background="new    " d="M1236.195,219.583l78.329,122.288
			c1.849,0.199,3.713,0.333,5.59,0.418l-82.068-128.129C1237.379,215.942,1236.758,217.749,1236.195,219.583z"/>
		<path opacity="0.4" fill="#FFFFFF" enable-background="new    " d="M1302.807,156.079l95.144,148.538
			c0.785-1.073,1.549-2.165,2.292-3.275l-93.587-146.107C1305.361,155.489,1304.08,155.77,1302.807,156.079z"/>
		<path opacity="0.4" fill="#FFFFFF" enable-background="new    " d="M1349.406,157.104l66.184,103.326
			c0.353-2.753,0.592-5.542,0.709-8.364l-59.125-92.307C1354.636,158.763,1352.045,157.872,1349.406,157.104z"/>
		<path opacity="0.4" fill="#FFFFFF" enable-background="new    " d="M1239.636,210.186l84.674,132.195
			c1.521,0,3.034-0.043,4.537-0.121l-87.293-136.285C1240.883,207.36,1240.242,208.764,1239.636,210.186z"/>
	</g>
	<g>
		<path opacity="0.5" fill="#FCE4D5" enable-background="new    " d="M348.162,437.814c-66.62,57.6-26.222,90.793,9.298,178.685
			c29.134,72.09,45.944,158.563,87.809,155.549V528.269C420.223,453.876,404.584,389.029,348.162,437.814z"/>
	</g>
	<g>
		<path opacity="0.4" fill="#FFFFFF" enable-background="new    " d="M255.665,434.473l93.382,145.791
			c1.296-0.25,2.586-0.518,3.864-0.821l-94.963-148.257C257.164,432.264,256.403,433.359,255.665,434.473z"/>
		<path opacity="0.4" fill="#FFFFFF" enable-background="new    " d="M299.407,399.099c-1.496,0.58-2.975,1.198-4.436,1.854
			l99.021,154.592l-2.714,2.219l-99.482-155.312c-1.531,0.76-3.04,1.568-4.521,2.412l100.878,157.495
			c4.059-3.193,7.846-6.727,11.332-10.557l-1.491,1.218L299.407,399.099z"/>
		<path opacity="0.4" fill="#FFFFFF" enable-background="new    " d="M379.341,406.397c-2.778-1.705-5.65-3.263-8.606-4.666
			l53.465,83.471c-0.075-3.351-0.324-6.66-0.731-9.916L379.341,406.397z"/>
		<path opacity="0.4" fill="#FFFFFF" enable-background="new    " d="M347.252,394.311l74.263,115.941
			c0.412-1.697,0.776-3.411,1.096-5.143l-70.327-109.795C350.625,394.931,348.946,394.599,347.252,394.311z"/>
		<path opacity="0.4" fill="#FFFFFF" enable-background="new    " d="M302.758,397.873l97.818,152.717
			c1.015-1.154,1.999-2.333,2.958-3.537l-96.428-150.546C305.64,396.928,304.19,397.383,302.758,397.873z"/>
		<path opacity="0.4" fill="#FFFFFF" enable-background="new    " d="M251.228,441.881l89.406,139.584
			c1.574-0.149,3.131-0.34,4.682-0.568l-91.707-143.175C252.782,439.086,251.987,440.472,251.228,441.881z"/>
		<path opacity="0.4" fill="#FFFFFF" enable-background="new    " d="M241.355,470.071l70.106,109.454
			c2.101,0.484,4.229,0.904,6.381,1.243l-75.071-117.204C242.227,465.706,241.757,467.875,241.355,470.071z"/>
		<path opacity="0.4" fill="#FFFFFF" enable-background="new    " d="M241.285,504.44l1.292-1.055l40.645,63.455l-0.514,0.417
			c3.241,2.107,6.624,4.008,10.124,5.693l-52.999-82.743C239.971,495.053,240.463,499.806,241.285,504.44z"/>
		<path opacity="0.4" fill="#FFFFFF" enable-background="new    " d="M272.104,415.665l100.349,156.669
			c0.701-0.353,1.398-0.717,2.09-1.084l-100.64-157.122C273.298,414.634,272.695,415.145,272.104,415.665z"/>
		<path opacity="0.4" fill="#FFFFFF" enable-background="new    " d="M275.604,412.745l100.854,157.456
			c0.992-0.563,1.973-1.142,2.944-1.734L278.329,410.664C277.408,411.34,276.5,412.035,275.604,412.745z"/>
		<path opacity="0.4" fill="#FFFFFF" enable-background="new    " d="M281.178,408.656l101.158,157.928
			c1.025-0.685,2.039-1.387,3.036-2.112L284.276,406.64C283.23,407.29,282.198,407.965,281.178,408.656z"/>
		<path opacity="0.4" fill="#FFFFFF" enable-background="new    " d="M266.058,421.459l98.796,154.246
			c1.494-0.583,2.969-1.204,4.426-1.864l-99.79-155.8C268.316,419.15,267.174,420.29,266.058,421.459z"/>
		<path opacity="0.4" fill="#FFFFFF" enable-background="new    " d="M260.188,428.227l96.264,150.29
			c1.708-0.477,3.396-1,5.061-1.572l-97.894-152.836C262.437,425.445,261.295,426.82,260.188,428.227z"/>
		<path opacity="0.4" fill="#FFFFFF" enable-background="new    " d="M239.867,483.804l58.721,91.678
			c2.58,1.028,5.212,1.94,7.897,2.73l-65.93-102.938C240.2,478.08,239.974,480.925,239.867,483.804z"/>
		<path opacity="0.4" fill="#FFFFFF" enable-background="new    " d="M386.688,411.408l35.245,55.024
			C416.955,444.008,404.184,424.62,386.688,411.408z"/>
		<path opacity="0.4" fill="#FFFFFF" enable-background="new    " d="M332.008,393.02c-1.41,0-2.812,0.039-4.207,0.103
			l87.034,135.879c0.815-1.698,1.583-3.43,2.297-5.185L333.37,393.038C332.915,393.03,332.463,393.02,332.008,393.02z"/>
		<path opacity="0.4" fill="#FFFFFF" enable-background="new    " d="M276.565,562.906l-34.254-53.478
			C247.358,531.117,259.713,549.903,276.565,562.906z"/>
		<path opacity="0.4" fill="#FFFFFF" enable-background="new    " d="M318.207,394.073l91.939,143.54
			c1.005-1.633,1.964-3.299,2.869-5l-89.175-139.22C321.946,393.563,320.066,393.788,318.207,394.073z"/>
		<path opacity="0.4" fill="#FFFFFF" enable-background="new    " d="M337.608,393.198l81.072,126.575
			c0.586-1.635,1.118-3.294,1.611-4.97l-77.595-121.149C341.011,393.457,339.315,393.303,337.608,393.198z"/>
		<path opacity="0.4" fill="#FFFFFF" enable-background="new    " d="M244.032,459.077l78.33,122.287
			c1.847,0.199,3.712,0.333,5.589,0.419l-82.068-128.13C245.214,455.436,244.596,457.243,244.032,459.077z"/>
		<path opacity="0.4" fill="#FFFFFF" enable-background="new    " d="M310.644,395.573l95.143,148.538
			c0.786-1.072,1.55-2.164,2.293-3.274l-93.587-146.108C313.199,394.984,311.916,395.265,310.644,395.573z"/>
		<path opacity="0.4" fill="#FFFFFF" enable-background="new    " d="M357.243,396.598l66.183,103.326
			c0.353-2.753,0.592-5.542,0.71-8.364l-59.125-92.308C362.472,398.257,359.882,397.366,357.243,396.598z"/>
		<path opacity="0.4" fill="#FFFFFF" enable-background="new    " d="M247.472,449.681l84.674,132.195
			c1.522,0,3.035-0.043,4.537-0.12l-87.292-136.285C248.719,446.854,248.081,448.258,247.472,449.681z"/>
	</g>
	<ellipse fill="#FCE4D5" cx="1168.673" cy="452.282" rx="11.611" ry="12.728"/>
	<ellipse fill="#9FC8BC" cx="1239.635" cy="581.876" rx="16.101" ry="18.212"/>
</g>
</svg>
