<?xml version="1.0" encoding="utf-8"?>
<!-- Generator: Adobe Illustrator 16.0.0, SVG Export Plug-In . SVG Version: 6.00 Build 0)  -->
<!DOCTYPE svg PUBLIC "-//W3C//DTD SVG 1.1//EN" "http://www.w3.org/Graphics/SVG/1.1/DTD/svg11.dtd">
<svg version="1.1" id="Layer_1" xmlns="http://www.w3.org/2000/svg" xmlns:xlink="http://www.w3.org/1999/xlink" x="0px" y="0px"
	 width="1200px" height="800px" viewBox="0 0 1200 800" enable-background="new 0 0 1200 800" xml:space="preserve">
<rect fill="#FAFAFC" width="1200" height="800"/>
<path display="none" fill-rule="evenodd" clip-rule="evenodd" fill="#CAC9CA" d="M1758.575-435.51
	c-1.533,0.316-3.357-0.588-4.541,1.238c-0.556,0.854-1.391,1.229-2.133,0.123c-0.85-1.267,0.955-1.254,1.031-2.088
	C1754.836-436.176,1756.856-437.039,1758.575-435.51z"/>
<g>
	<g>
		<path fill="#E7F1F5" d="M1197.197,797.58c0.933-0.401,1.882-0.817,2.803-1.206V633.163
			c-103.336,43.338-211.369,37.084-211.369,37.084c-68.551,30.545-58.256,90.602-3.969,125.654h212.535V797.58z"/>
	</g>
	<g>
		<path opacity="0.5" fill="#FBE3D4" enable-background="new    " d="M403.961,708.843c-67.307-57.154-106.093-22.494-208.796,7.978
			c-84.234,24.993-185.282,39.413-181.758,75.331h284.854C385.19,770.664,460.964,757.246,403.961,708.843z"/>
	</g>
	<g>
		<path opacity="0.4" fill="#FFFFFF" enable-background="new    " d="M300.044,675.396l78.971,110.015
			c1.096-0.188,2.187-0.393,3.268-0.621l-80.309-111.875C301.31,673.729,300.667,674.556,300.044,675.396z"/>
		<path opacity="0.4" fill="#FFFFFF" enable-background="new    " d="M337.036,648.703c-1.267,0.438-2.515,0.904-3.751,1.398
			l83.74,116.656l-2.296,1.675l-84.129-117.2c-1.295,0.574-2.572,1.184-3.824,1.82l85.312,118.846
			c3.433-2.409,6.635-5.075,9.583-7.965l-1.261,0.919L337.036,648.703z"/>
		<path opacity="0.4" fill="#FFFFFF" enable-background="new    " d="M404.636,654.21c-2.35-1.285-4.778-2.461-7.28-3.52
			l45.216,62.987c-0.063-2.528-0.273-5.024-0.618-7.482L404.636,654.21z"/>
		<path opacity="0.4" fill="#FFFFFF" enable-background="new    " d="M377.498,645.091l62.803,87.489
			c0.347-1.279,0.656-2.574,0.927-3.881l-59.474-82.852C380.349,645.559,378.929,645.309,377.498,645.091z"/>
		<path opacity="0.4" fill="#FFFFFF" enable-background="new    " d="M339.869,647.778l82.723,115.241
			c0.858-0.872,1.691-1.761,2.5-2.67l-81.547-113.603C342.308,647.063,341.082,647.408,339.869,647.778z"/>
		<path opacity="0.4" fill="#FFFFFF" enable-background="new    " d="M296.291,680.987l75.61,105.33
			c1.33-0.113,2.648-0.258,3.958-0.429l-77.554-108.041C297.605,678.878,296.933,679.925,296.291,680.987z"/>
		<path opacity="0.4" fill="#FFFFFF" enable-background="new    " d="M287.943,702.26l59.288,82.594
			c1.777,0.366,3.575,0.683,5.396,0.938L289.14,697.35C288.679,698.965,288.282,700.602,287.943,702.26z"/>
		<path opacity="0.4" fill="#FFFFFF" enable-background="new    " d="M287.883,728.195l1.093-0.797l34.373,47.883l-0.434,0.314
			c2.741,1.59,5.602,3.023,8.561,4.297l-44.82-62.438C286.771,721.111,287.188,724.697,287.883,728.195z"/>
		<path opacity="0.4" fill="#FFFFFF" enable-background="new    " d="M313.944,661.204l84.865,118.222
			c0.592-0.267,1.183-0.538,1.769-0.817l-85.112-118.563C314.955,660.426,314.446,660.812,313.944,661.204z"/>
		<path opacity="0.4" fill="#FFFFFF" enable-background="new    " d="M316.907,659.001l85.291,118.815
			c0.839-0.424,1.668-0.86,2.49-1.309L319.21,657.431C318.432,657.94,317.664,658.466,316.907,659.001z"/>
		<path opacity="0.4" fill="#FFFFFF" enable-background="new    " d="M321.621,655.915l85.547,119.172
			c0.867-0.516,1.725-1.045,2.567-1.593l-85.496-119.101C323.355,654.884,322.482,655.395,321.621,655.915z"/>
		<path opacity="0.4" fill="#FFFFFF" enable-background="new    " d="M308.833,665.576l83.551,116.395
			c1.265-0.44,2.512-0.909,3.743-1.407l-84.391-117.565C310.743,663.834,309.776,664.692,308.833,665.576z"/>
		<path opacity="0.4" fill="#FFFFFF" enable-background="new    " d="M303.868,670.684l81.41,113.41
			c1.444-0.361,2.872-0.756,4.28-1.188l-82.789-115.33C305.771,668.584,304.804,669.623,303.868,670.684z"/>
		<path opacity="0.4" fill="#FFFFFF" enable-background="new    " d="M286.684,712.621l49.661,69.183
			c2.181,0.775,4.406,1.462,6.678,2.059l-55.757-77.677C286.965,708.302,286.774,710.449,286.684,712.621z"/>
		<path opacity="0.4" fill="#FFFFFF" enable-background="new    " d="M410.848,657.991l29.806,41.521
			C436.444,682.592,425.644,667.961,410.848,657.991z"/>
		<path opacity="0.4" fill="#FFFFFF" enable-background="new    " d="M364.607,644.115c-1.193,0-2.378,0.03-3.56,0.078
			l73.604,102.534c0.69-1.282,1.34-2.587,1.945-3.912l-70.839-98.687C365.372,644.124,364.992,644.115,364.607,644.115z"/>
		<path opacity="0.4" fill="#FFFFFF" enable-background="new    " d="M317.718,772.313l-28.967-40.354
			C293.019,748.324,303.468,762.5,317.718,772.313z"/>
		<path opacity="0.4" fill="#FFFFFF" enable-background="new    " d="M352.935,644.91l77.752,108.317
			c0.848-1.233,1.66-2.49,2.423-3.773l-75.412-105.056C356.097,644.525,354.507,644.694,352.935,644.91z"/>
		<path opacity="0.4" fill="#FFFFFF" enable-background="new    " d="M369.341,644.251l68.563,95.515
			c0.495-1.234,0.946-2.485,1.362-3.75l-65.623-91.42C372.221,644.444,370.786,644.33,369.341,644.251z"/>
		<path opacity="0.4" fill="#FFFFFF" enable-background="new    " d="M290.205,693.963l66.243,92.278
			c1.562,0.149,3.14,0.252,4.726,0.315l-69.404-96.686C291.207,691.216,290.682,692.58,290.205,693.963z"/>
		<path opacity="0.4" fill="#FFFFFF" enable-background="new    " d="M346.538,646.043l80.461,112.087
			c0.665-0.81,1.311-1.634,1.94-2.471l-79.146-110.252C348.699,645.598,347.615,645.81,346.538,646.043z"/>
		<path opacity="0.4" fill="#FFFFFF" enable-background="new    " d="M385.946,646.816l55.97,77.971
			c0.299-2.077,0.5-4.182,0.601-6.312l-50.001-69.655C390.369,648.068,388.178,647.396,385.946,646.816z"/>
		<path opacity="0.4" fill="#FFFFFF" enable-background="new    " d="M293.114,686.873l71.609,99.755
			c1.287,0,2.567-0.032,3.837-0.091l-73.822-102.842C294.17,684.74,293.629,685.799,293.114,686.873z"/>
	</g>
	<g>
		<polygon fill="none" points="1129.942,678.02 1197.569,782.332 1197.569,777.604 1131.955,676.395 		"/>
		<path opacity="0.4" fill="#FFFFFF" enable-background="new    " d="M1163.26,659.916c-0.963,0.184-1.919,0.381-2.864,0.602
			l37.174,57.342v-5.018L1163.26,659.916z"/>
		<path opacity="0.4" fill="#FFFFFF" enable-background="new    " d="M1129.942,678.02l2.013-1.625l65.614,101.209v-6.936
			l-63.298-97.637c-3.008,2.338-5.816,4.924-8.4,7.729l1.104-0.891l70.595,108.889v-6.426L1129.942,678.02z"/>
		<path opacity="0.4" fill="#FFFFFF" enable-background="new    " d="M1108.093,736.793l32.709,50.451
			c2.059,1.248,4.189,2.389,6.383,3.418l-39.633-61.131C1107.608,731.986,1107.792,734.408,1108.093,736.793z"/>
		<path opacity="0.4" fill="#FFFFFF" enable-background="new    " d="M1164.589,796.096l-55.045-84.906
			c-0.307,1.242-0.578,2.496-0.814,3.766l52.127,80.404C1162.089,795.641,1163.333,795.885,1164.589,796.096z"/>
		<path opacity="0.4" fill="#FFFFFF" enable-background="new    " d="M1197.569,793.486l-72.505-111.838
			c-0.752,0.844-1.482,1.709-2.191,2.59l71.474,110.248C1195.433,794.18,1196.507,793.844,1197.569,793.486z"/>
		<path opacity="0.4" fill="#FFFFFF" enable-background="new    " d="M1169.496,659.039c-1.167,0.107-2.324,0.248-3.471,0.414
			l31.544,48.658l0.001-5.77L1169.496,659.039z"/>
		<path opacity="0.4" fill="#FFFFFF" enable-background="new    " d="M1191.117,660.459c-1.558-0.355-3.134-0.664-4.729-0.912
			l11.182,17.248v-6.383L1191.117,660.459z"/>
		<path opacity="0.4" fill="#FFFFFF" enable-background="new    " d="M1145.91,665.725c-0.52,0.26-1.037,0.523-1.551,0.793
			l53.21,82.074v-3.184L1145.91,665.725z"/>
		<path opacity="0.4" fill="#FFFFFF" enable-background="new    " d="M1142.941,667.287c-0.736,0.41-1.463,0.834-2.183,1.27
			l56.811,87.633v-4.637L1142.941,667.287z"/>
		<path opacity="0.4" fill="#FFFFFF" enable-background="new    " d="M1138.586,669.936c-0.762,0.502-1.514,1.016-2.254,1.545
			l61.237,94.457v-5.02L1138.586,669.936z"/>
		<path opacity="0.4" fill="#FFFFFF" enable-background="new    " d="M1151.541,663.256c-1.107,0.426-2.199,0.881-3.28,1.365
			l49.309,76.059v-6.426L1151.541,663.256z"/>
		<path opacity="0.4" fill="#FFFFFF" enable-background="new    " d="M1157.77,661.195c-1.266,0.352-2.516,0.732-3.75,1.152
			l43.55,67.176v-6.936L1157.77,661.195z"/>
		<path opacity="0.4" fill="#FFFFFF" enable-background="new    " d="M1194.806,661.42l2.765,4.264v-3.393
			C1196.657,661.982,1195.736,661.689,1194.806,661.42z"/>
		<path opacity="0.4" fill="#FFFFFF" enable-background="new    " d="M1135.356,783.574l-26.123-40.297
			C1112.923,759.701,1122.39,773.898,1135.356,783.574z"/>
		<path opacity="0.4" fill="#FFFFFF" enable-background="new    " d="M1175.886,797.039c1.047,0,2.086-0.025,3.121-0.072
			l-64.513-99.51c-0.604,1.246-1.174,2.514-1.706,3.797l62.09,95.775C1175.214,797.033,1175.55,797.039,1175.886,797.039z"/>
		<path opacity="0.4" fill="#FFFFFF" enable-background="new    " d="M1186.118,796.27l-68.149-105.117
			c-0.744,1.195-1.455,2.414-2.125,3.66l66.099,101.953C1183.347,796.643,1184.739,796.479,1186.118,796.27z"/>
		<path opacity="0.4" fill="#FFFFFF" enable-background="new    " d="M1171.739,796.91l-60.097-92.695
			c-0.43,1.197-0.829,2.412-1.194,3.639l57.52,88.723C1169.214,796.721,1170.472,796.834,1171.739,796.91z"/>
		<path opacity="0.4" fill="#FFFFFF" enable-background="new    " d="M1183.039,659.109c-1.369-0.145-2.752-0.242-4.144-0.305
			l18.675,28.805v-6.086L1183.039,659.109z"/>
		<path opacity="0.4" fill="#FFFFFF" enable-background="new    " d="M1191.726,795.172l-70.522-108.779
			c-0.584,0.785-1.149,1.586-1.7,2.396l69.367,107C1189.829,795.604,1190.78,795.398,1191.726,795.172z"/>
		<path opacity="0.4" fill="#FFFFFF" enable-background="new    " d="M1157.183,794.42l-49.057-75.668
			c-0.264,2.016-0.439,4.059-0.525,6.125l43.824,67.6C1153.306,793.205,1155.228,793.857,1157.183,794.42z"/>
		<path opacity="0.4" fill="#FFFFFF" enable-background="new    " d="M1175.785,658.736c-1.127,0.002-2.25,0.031-3.363,0.088
			l25.148,38.789v-5.275L1175.785,658.736z"/>
	</g>
	<g>
		<path opacity="0.4" fill="#FFFFFF" enable-background="new    " d="M1062.799,58.549l78.972,110.015
			c1.096-0.188,2.186-0.393,3.268-0.621l-80.31-111.875C1064.064,56.882,1063.422,57.708,1062.799,58.549z"/>
		<path opacity="0.4" fill="#FFFFFF" enable-background="new    " d="M1099.791,31.855c-1.268,0.438-2.516,0.904-3.751,1.398
			l83.74,116.656l-2.296,1.675l-84.129-117.2c-1.296,0.574-2.572,1.184-3.824,1.82l85.312,118.846
			c3.434-2.409,6.635-5.075,9.584-7.965l-1.262,0.919L1099.791,31.855z"/>
		<path opacity="0.4" fill="#FFFFFF" enable-background="new    " d="M1167.391,37.362c-2.35-1.285-4.778-2.461-7.28-3.52
			l45.216,62.987c-0.063-2.528-0.273-5.024-0.618-7.482L1167.391,37.362z"/>
		<path opacity="0.4" fill="#FFFFFF" enable-background="new    " d="M1140.253,28.243l62.803,87.489
			c0.348-1.279,0.656-2.574,0.928-3.881L1144.509,29C1143.104,28.711,1141.685,28.461,1140.253,28.243z"/>
		<path opacity="0.4" fill="#FFFFFF" enable-background="new    " d="M1102.624,30.931l82.723,115.241
			c0.859-0.872,1.691-1.761,2.501-2.67l-81.547-113.603C1105.063,30.216,1103.837,30.561,1102.624,30.931z"/>
		<path opacity="0.4" fill="#FFFFFF" enable-background="new    " d="M1059.045,64.14l75.61,105.33
			c1.33-0.113,2.648-0.258,3.959-0.429L1061.06,61C1060.359,62.03,1059.688,63.077,1059.045,64.14z"/>
		<path opacity="0.4" fill="#FFFFFF" enable-background="new    " d="M1050.697,85.412l59.288,82.594
			c1.777,0.366,3.576,0.683,5.396,0.938l-63.487-88.442C1051.434,82.117,1051.037,83.754,1050.697,85.412z"/>
		<path opacity="0.4" fill="#FFFFFF" enable-background="new    " d="M1050.639,111.348l1.092-0.797l34.373,47.883l-0.434,0.314
			c2.74,1.59,5.602,3.023,8.561,4.297l-44.82-62.438C1049.525,104.264,1049.943,107.85,1050.639,111.348z"/>
		<path opacity="0.4" fill="#FFFFFF" enable-background="new    " d="M1076.699,44.356l84.864,118.222
			c0.593-0.267,1.184-0.538,1.77-0.817l-85.112-118.563C1077.71,43.578,1077.201,43.964,1076.699,44.356z"/>
		<path opacity="0.4" fill="#FFFFFF" enable-background="new    " d="M1079.662,42.153l85.29,118.815
			c0.84-0.424,1.668-0.86,2.49-1.309l-85.478-119.077C1081.188,41.093,1080.419,41.618,1079.662,42.153z"/>
		<path opacity="0.4" fill="#FFFFFF" enable-background="new    " d="M1084.375,39.067l85.548,119.172
			c0.866-0.516,1.725-1.045,2.566-1.593l-85.495-119.101C1086.109,38.036,1085.237,38.547,1084.375,39.067z"/>
		<path opacity="0.4" fill="#FFFFFF" enable-background="new    " d="M1071.588,48.729l83.551,116.395
			c1.265-0.44,2.512-0.909,3.743-1.407L1074.49,46.15C1073.498,46.986,1072.531,47.845,1071.588,48.729z"/>
		<path opacity="0.4" fill="#FFFFFF" enable-background="new    " d="M1066.623,53.836l81.409,113.41
			c1.444-0.361,2.872-0.756,4.28-1.188l-82.789-115.33C1068.526,51.736,1067.559,52.775,1066.623,53.836z"/>
		<path opacity="0.4" fill="#FFFFFF" enable-background="new    " d="M1049.438,95.773l49.661,69.183
			c2.18,0.775,4.406,1.462,6.678,2.059l-55.757-77.677C1049.721,91.454,1049.529,93.602,1049.438,95.773z"/>
		<path opacity="0.4" fill="#FFFFFF" enable-background="new    " d="M1173.603,41.144l29.807,41.521
			C1199.198,65.744,1188.398,51.113,1173.603,41.144z"/>
		<path opacity="0.4" fill="#FFFFFF" enable-background="new    " d="M1127.362,27.268c-1.193,0-2.379,0.03-3.56,0.078
			l73.604,102.534c0.69-1.282,1.34-2.587,1.945-3.912l-70.839-98.687C1128.127,27.276,1127.747,27.268,1127.362,27.268z"/>
		<path opacity="0.4" fill="#FFFFFF" enable-background="new    " d="M1080.473,155.466l-28.967-40.354
			C1055.773,131.477,1066.223,145.652,1080.473,155.466z"/>
		<path opacity="0.4" fill="#FFFFFF" enable-background="new    " d="M1115.689,28.063l77.753,108.317
			c0.848-1.233,1.659-2.49,2.422-3.773l-75.412-105.056C1118.853,27.678,1117.262,27.847,1115.689,28.063z"/>
		<path opacity="0.4" fill="#FFFFFF" enable-background="new    " d="M1132.097,27.403l68.563,95.515
			c0.494-1.234,0.945-2.485,1.362-3.75l-65.622-91.42C1134.976,27.597,1133.541,27.482,1132.097,27.403z"/>
		<path opacity="0.4" fill="#FFFFFF" enable-background="new    " d="M1052.96,77.115l66.242,92.278
			c1.563,0.149,3.141,0.252,4.727,0.315l-69.404-96.686C1053.961,74.368,1053.438,75.732,1052.96,77.115z"/>
		<path opacity="0.4" fill="#FFFFFF" enable-background="new    " d="M1109.292,29.195l80.461,112.087
			c0.665-0.81,1.311-1.634,1.941-2.471L1112.548,28.56C1111.454,28.75,1110.37,28.962,1109.292,29.195z"/>
		<path opacity="0.4" fill="#FFFFFF" enable-background="new    " d="M1148.701,29.969l55.97,77.971
			c0.3-2.077,0.501-4.182,0.602-6.312l-50.002-69.655C1153.124,31.221,1150.933,30.548,1148.701,29.969z"/>
		<path opacity="0.4" fill="#FFFFFF" enable-background="new    " d="M1055.869,70.025l71.608,99.755
			c1.287,0,2.567-0.032,3.838-0.091l-73.823-102.842C1056.925,67.893,1056.384,68.951,1055.869,70.025z"/>
	</g>
	<g>
		<path opacity="0.4" fill="#FFFFFF" enable-background="new    " d="M20.221,606.841l78.972,110.015
			c1.096-0.188,2.186-0.393,3.268-0.621L22.151,604.359C21.487,605.174,20.844,606,20.221,606.841z"/>
		<path opacity="0.4" fill="#FFFFFF" enable-background="new    " d="M57.213,580.147c-1.267,0.438-2.515,0.904-3.751,1.398
			l83.74,116.656l-2.296,1.675l-84.129-117.2c-1.295,0.574-2.572,1.184-3.824,1.82l85.312,118.846
			c3.434-2.409,6.635-5.075,9.584-7.965l-1.262,0.919L57.213,580.147z"/>
		<path opacity="0.4" fill="#FFFFFF" enable-background="new    " d="M124.813,585.654c-2.35-1.285-4.778-2.461-7.28-3.52
			l45.216,62.987c-0.063-2.528-0.273-5.024-0.618-7.482L124.813,585.654z"/>
		<path opacity="0.4" fill="#FFFFFF" enable-background="new    " d="M97.675,576.535l62.803,87.489
			c0.348-1.279,0.656-2.574,0.928-3.881l-59.475-82.852C100.527,577.003,99.107,576.753,97.675,576.535z"/>
		<path opacity="0.4" fill="#FFFFFF" enable-background="new    " d="M60.046,579.223l82.723,115.241
			c0.859-0.872,1.691-1.761,2.501-2.67L63.723,578.191C62.485,578.508,61.259,578.853,60.046,579.223z"/>
		<path opacity="0.4" fill="#FFFFFF" enable-background="new    " d="M16.468,612.432l75.61,105.33
			c1.33-0.113,2.648-0.258,3.959-0.429L18.482,609.292C17.782,610.322,17.11,611.369,16.468,612.432z"/>
		<path opacity="0.4" fill="#FFFFFF" enable-background="new    " d="M8.12,633.704l59.288,82.594
			c1.777,0.366,3.576,0.683,5.396,0.938L9.317,628.794C8.856,630.409,8.459,632.046,8.12,633.704z"/>
		<path opacity="0.4" fill="#FFFFFF" enable-background="new    " d="M8.061,659.64l1.093-0.797l34.373,47.883l-0.434,0.314
			c2.741,1.59,5.602,3.023,8.561,4.297l-44.82-62.438C6.948,652.556,7.365,656.142,8.061,659.64z"/>
		<path opacity="0.4" fill="#FFFFFF" enable-background="new    " d="M34.122,592.648l84.864,118.222
			c0.593-0.267,1.184-0.538,1.77-0.817L35.644,591.489C35.132,591.87,34.623,592.256,34.122,592.648z"/>
		<path opacity="0.4" fill="#FFFFFF" enable-background="new    " d="M37.084,590.445l85.291,118.815
			c0.84-0.424,1.668-0.86,2.49-1.309L39.387,588.875C38.609,589.385,37.841,589.91,37.084,590.445z"/>
		<path opacity="0.4" fill="#FFFFFF" enable-background="new    " d="M41.798,587.359l85.547,119.172
			c0.866-0.516,1.725-1.045,2.566-1.593L44.416,585.838C43.532,586.328,42.66,586.839,41.798,587.359z"/>
		<path opacity="0.4" fill="#FFFFFF" enable-background="new    " d="M29.01,597.021l83.551,116.395
			c1.265-0.44,2.512-0.909,3.743-1.407L31.913,594.442C30.92,595.278,29.953,596.137,29.01,597.021z"/>
		<path opacity="0.4" fill="#FFFFFF" enable-background="new    " d="M24.045,602.128l81.409,113.41
			c1.444-0.361,2.872-0.756,4.28-1.188L26.946,599.02C25.949,600.028,24.981,601.067,24.045,602.128z"/>
		<path opacity="0.4" fill="#FFFFFF" enable-background="new    " d="M6.861,644.065l49.661,69.183
			c2.181,0.775,4.406,1.462,6.678,2.059L7.443,637.63C7.143,639.746,6.952,641.894,6.861,644.065z"/>
		<path opacity="0.4" fill="#FFFFFF" enable-background="new    " d="M131.025,589.436l29.807,41.521
			C156.621,614.036,145.821,599.405,131.025,589.436z"/>
		<path opacity="0.4" fill="#FFFFFF" enable-background="new    " d="M84.785,575.56c-1.193,0-2.379,0.03-3.56,0.078l73.604,102.534
			c0.69-1.282,1.34-2.587,1.945-3.912l-70.839-98.687C85.549,575.568,85.169,575.56,84.785,575.56z"/>
		<path opacity="0.4" fill="#FFFFFF" enable-background="new    " d="M37.895,703.758L8.928,663.403
			C13.196,679.769,23.645,693.944,37.895,703.758z"/>
		<path opacity="0.4" fill="#FFFFFF" enable-background="new    " d="M73.112,576.354l77.753,108.317
			c0.848-1.233,1.659-2.49,2.422-3.773L77.875,575.843C76.275,575.97,74.684,576.139,73.112,576.354z"/>
		<path opacity="0.4" fill="#FFFFFF" enable-background="new    " d="M89.519,575.695l68.563,95.515
			c0.494-1.234,0.945-2.485,1.362-3.75l-65.622-91.42C92.398,575.889,90.963,575.774,89.519,575.695z"/>
		<path opacity="0.4" fill="#FFFFFF" enable-background="new    " d="M10.382,625.407l66.242,92.278
			c1.563,0.149,3.141,0.252,4.727,0.315l-69.404-96.686C11.384,622.66,10.859,624.024,10.382,625.407z"/>
		<path opacity="0.4" fill="#FFFFFF" enable-background="new    " d="M66.714,577.487l80.461,112.087
			c0.665-0.81,1.311-1.634,1.941-2.471L69.97,576.852C68.876,577.042,67.792,577.254,66.714,577.487z"/>
		<path opacity="0.4" fill="#FFFFFF" enable-background="new    " d="M106.124,578.261l55.97,77.971
			c0.3-2.077,0.501-4.182,0.602-6.312l-50.002-69.655C110.546,579.513,108.355,578.84,106.124,578.261z"/>
		<path opacity="0.4" fill="#FFFFFF" enable-background="new    " d="M13.292,618.317L84.9,718.072c1.287,0,2.567-0.032,3.838-0.091
			L14.915,615.14C14.347,616.185,13.806,617.243,13.292,618.317z"/>
	</g>
</g>
</svg>
